<?xml version="1.0" encoding="UTF-8" standalone="no"?>
<!-- Created with Inkscape (http://www.inkscape.org/) -->

<svg
   xmlns:dc="http://purl.org/dc/elements/1.1/"
   xmlns:cc="http://creativecommons.org/ns#"
   xmlns:rdf="http://www.w3.org/1999/02/22-rdf-syntax-ns#"
   xmlns:svg="http://www.w3.org/2000/svg"
   xmlns="http://www.w3.org/2000/svg"
   xmlns:sodipodi="http://sodipodi.sourceforge.net/DTD/sodipodi-0.dtd"
   xmlns:inkscape="http://www.inkscape.org/namespaces/inkscape"
   id="svg2"
   version="1.1"
   inkscape:version="0.91 r13725"
   xml:space="preserve"
   width="576.25"
   height="431.25"
   viewBox="0 0 576.25 431.25"
   sodipodi:docname="classifcation_loss_manual_vs_automatic_training_zoomed.svg"><metadata
     id="metadata8"><rdf:RDF><cc:Work
         rdf:about=""><dc:format>image/svg+xml</dc:format><dc:type
           rdf:resource="http://purl.org/dc/dcmitype/StillImage" /><dc:title></dc:title></cc:Work></rdf:RDF></metadata><defs
     id="defs6"><clipPath
       clipPathUnits="userSpaceOnUse"
       id="clipPath18"><path
         d="m 6,2 0,3448 4604,0 L 4610,2 6,2 Z"
         id="path20"
         inkscape:connector-curvature="0" /></clipPath><clipPath
       clipPathUnits="userSpaceOnUse"
       id="clipPath156"><path
         d="m 582,382.199 3571,0 0,2661 -3571,0 0,-2661 z"
         id="path158"
         inkscape:connector-curvature="0" /></clipPath><clipPath
       clipPathUnits="userSpaceOnUse"
       id="clipPath168"><path
         d="m 6,2 0,3448 4604,0 L 4610,2 6,2 Z"
         id="path170"
         inkscape:connector-curvature="0" /></clipPath></defs><sodipodi:namedview
     pagecolor="#ffffff"
     bordercolor="#666666"
     borderopacity="1"
     objecttolerance="10"
     gridtolerance="10"
     guidetolerance="10"
     inkscape:pageopacity="0"
     inkscape:pageshadow="2"
     inkscape:window-width="1127"
     inkscape:window-height="709"
     id="namedview4"
     showgrid="false"
     inkscape:zoom="1.5478465"
     inkscape:cx="349.93866"
     inkscape:cy="16.181071"
     inkscape:window-x="0"
     inkscape:window-y="0"
     inkscape:window-maximized="0"
     inkscape:current-layer="g10" /><g
     id="g10"
     inkscape:groupmode="layer"
     inkscape:label="ink_ext_XXXXXX"
     transform="matrix(1.25,0,0,-1.25,0,431.25)"><g
       id="g12"
       transform="scale(0.1,0.1)"><g
         id="g14"><g
           id="g16"
           clip-path="url(#clipPath18)"><path
             d="m 6,2 4608,0 0,3456 L 6,3458 6,2 Z"
             style="fill:#ffffff;fill-opacity:1;fill-rule:nonzero;stroke:none"
             id="path22"
             inkscape:connector-curvature="0" /><path
             d="m 582,382.16 3571.2,0 0,2661.12 -3571.2,0 0,-2661.12 z"
             style="fill:#ffffff;fill-opacity:1;fill-rule:nonzero;stroke:none"
             id="path24"
             inkscape:connector-curvature="0" /><path
             d="m 669.914,382.16 0,-35"
             style="fill:#000000;fill-opacity:1;fill-rule:nonzero;stroke:none"
             id="path26"
             inkscape:connector-curvature="0" /><path
             d="m 669.914,382.16 0,-35"
             style="fill:none;stroke:#000000;stroke-width:8;stroke-linecap:butt;stroke-linejoin:round;stroke-miterlimit:10;stroke-dasharray:none;stroke-opacity:1"
             id="path28"
             inkscape:connector-curvature="0" /><g
             id="g30"
             transform="scale(10,10)"><text
               transform="matrix(1,0,0,-1,63.8117,23.6223)"
               style="font-variant:normal;font-weight:normal;font-size:10px;font-family:Arial;-inkscape-font-specification:Arial;writing-mode:lr-tb;fill:#000000;fill-opacity:1;fill-rule:nonzero;stroke:none"
               id="text32"><tspan
                 x="0"
                 y="0"
                 id="tspan34">0</tspan></text>
</g><path
             d="m 1357.16,382.16 0,-35"
             style="fill:#000000;fill-opacity:1;fill-rule:nonzero;stroke:none"
             id="path36"
             inkscape:connector-curvature="0" /><path
             d="m 1357.16,382.16 0,-35"
             style="fill:none;stroke:#000000;stroke-width:8;stroke-linecap:butt;stroke-linejoin:round;stroke-miterlimit:10;stroke-dasharray:none;stroke-opacity:1"
             id="path38"
             inkscape:connector-curvature="0" /><g
             id="g40"
             transform="scale(10,10)"><text
               transform="matrix(1,0,0,-1,119.818,23.6223)"
               style="font-variant:normal;font-weight:normal;font-size:10px;font-family:Arial;-inkscape-font-specification:Arial;writing-mode:lr-tb;fill:#000000;fill-opacity:1;fill-rule:nonzero;stroke:none"
               id="text42"><tspan
                 x="0 6.362112 12.724614 19.086725 25.449228"
                 y="0"
                 sodipodi:role="line"
                 id="tspan44">20000</tspan></text>
</g><path
             d="m 2044.4,382.16 0,-35"
             style="fill:#000000;fill-opacity:1;fill-rule:nonzero;stroke:none"
             id="path46"
             inkscape:connector-curvature="0" /><path
             d="m 2044.4,382.16 0,-35"
             style="fill:none;stroke:#000000;stroke-width:8;stroke-linecap:butt;stroke-linejoin:round;stroke-miterlimit:10;stroke-dasharray:none;stroke-opacity:1"
             id="path48"
             inkscape:connector-curvature="0" /><g
             id="g50"
             transform="scale(10,10)"><text
               transform="matrix(1,0,0,-1,188.542,23.6223)"
               style="font-variant:normal;font-weight:normal;font-size:10px;font-family:Arial;-inkscape-font-specification:Arial;writing-mode:lr-tb;fill:#000000;fill-opacity:1;fill-rule:nonzero;stroke:none"
               id="text52"><tspan
                 x="0 6.362112 12.724614 19.086714 25.449203"
                 y="0"
                 sodipodi:role="line"
                 id="tspan54">40000</tspan></text>
</g><path
             d="m 2731.65,382.16 0,-35"
             style="fill:#000000;fill-opacity:1;fill-rule:nonzero;stroke:none"
             id="path56"
             inkscape:connector-curvature="0" /><path
             d="m 2731.65,382.16 0,-35"
             style="fill:none;stroke:#000000;stroke-width:8;stroke-linecap:butt;stroke-linejoin:round;stroke-miterlimit:10;stroke-dasharray:none;stroke-opacity:1"
             id="path58"
             inkscape:connector-curvature="0" /><g
             id="g60"
             transform="scale(10,10)"><text
               transform="matrix(1,0,0,-1,257.267,23.6223)"
               style="font-variant:normal;font-weight:normal;font-size:10px;font-family:Arial;-inkscape-font-specification:Arial;writing-mode:lr-tb;fill:#000000;fill-opacity:1;fill-rule:nonzero;stroke:none"
               id="text62"><tspan
                 x="0 6.3620996 12.72459 19.086689 25.449181"
                 y="0"
                 sodipodi:role="line"
                 id="tspan64">60000</tspan></text>
</g><path
             d="m 3418.9,382.16 0,-35"
             style="fill:#000000;fill-opacity:1;fill-rule:nonzero;stroke:none"
             id="path66"
             inkscape:connector-curvature="0" /><path
             d="m 3418.9,382.16 0,-35"
             style="fill:none;stroke:#000000;stroke-width:8;stroke-linecap:butt;stroke-linejoin:round;stroke-miterlimit:10;stroke-dasharray:none;stroke-opacity:1"
             id="path68"
             inkscape:connector-curvature="0" /><g
             id="g70"
             transform="scale(10,10)"><text
               transform="matrix(1,0,0,-1,325.991,23.6223)"
               style="font-variant:normal;font-weight:normal;font-size:10px;font-family:Arial;-inkscape-font-specification:Arial;writing-mode:lr-tb;fill:#000000;fill-opacity:1;fill-rule:nonzero;stroke:none"
               id="text72"><tspan
                 x="0 6.3620996 12.72459 19.086689 25.449181"
                 y="0"
                 sodipodi:role="line"
                 id="tspan74">80000</tspan></text>
</g><path
             d="m 4106.14,382.16 0,-35"
             style="fill:#000000;fill-opacity:1;fill-rule:nonzero;stroke:none"
             id="path76"
             inkscape:connector-curvature="0" /><path
             d="m 4106.14,382.16 0,-35"
             style="fill:none;stroke:#000000;stroke-width:8;stroke-linecap:butt;stroke-linejoin:round;stroke-miterlimit:10;stroke-dasharray:none;stroke-opacity:1"
             id="path78"
             inkscape:connector-curvature="0" /><g
             id="g80"
             transform="scale(10,10)"><text
               transform="matrix(1,0,0,-1,391.536,23.6223)"
               style="font-variant:normal;font-weight:normal;font-size:10px;font-family:Arial;-inkscape-font-specification:Arial;writing-mode:lr-tb;fill:#000000;fill-opacity:1;fill-rule:nonzero;stroke:none"
               id="text82"><tspan
                 x="0 6.3620996 12.72459 19.086689 25.449181 31.811279"
                 y="0"
                 sodipodi:role="line"
                 id="tspan84">100000</tspan><tspan
                 sodipodi:role="line"
                 id="tspan86"
                 x="0"
                 y="0" /></text>
</g><path
             d="m 582,421.988 -35,0"
             style="fill:#000000;fill-opacity:1;fill-rule:nonzero;stroke:none"
             id="path88"
             inkscape:connector-curvature="0" /><path
             d="m 582,421.988 -35,0"
             style="fill:none;stroke:#000000;stroke-width:8;stroke-linecap:butt;stroke-linejoin:round;stroke-miterlimit:10;stroke-dasharray:none;stroke-opacity:1"
             id="path90"
             inkscape:connector-curvature="0" /><g
             id="g92"
             transform="scale(10,10)"><text
               transform="matrix(1,0,0,-1,44.8406,38.402)"
               style="font-variant:normal;font-weight:normal;font-size:10px;font-family:Arial;-inkscape-font-specification:Arial;writing-mode:lr-tb;fill:#000000;fill-opacity:1;fill-rule:nonzero;stroke:none"
               id="text94"><tspan
                 x="0"
                 y="0"
                 id="tspan96">0</tspan></text>
</g><path
             d="m 582,910.48 -35,0"
             style="fill:#000000;fill-opacity:1;fill-rule:nonzero;stroke:none"
             id="path98"
             inkscape:connector-curvature="0" /><path
             d="m 582,910.48 -35,0"
             style="fill:none;stroke:#000000;stroke-width:8;stroke-linecap:butt;stroke-linejoin:round;stroke-miterlimit:10;stroke-dasharray:none;stroke-opacity:1"
             id="path100"
             inkscape:connector-curvature="0" /><g
             id="g102"
             transform="scale(10,10)"><text
               transform="matrix(1,0,0,-1,44.8406,87.2512)"
               style="font-variant:normal;font-weight:normal;font-size:10px;font-family:Arial;-inkscape-font-specification:Arial;writing-mode:lr-tb;fill:#000000;fill-opacity:1;fill-rule:nonzero;stroke:none"
               id="text104"><tspan
                 x="0"
                 y="0"
                 id="tspan106">1</tspan></text>
</g><path
             d="m 582,1398.97 -35,0"
             style="fill:#000000;fill-opacity:1;fill-rule:nonzero;stroke:none"
             id="path108"
             inkscape:connector-curvature="0" /><path
             d="m 582,1398.97 -35,0"
             style="fill:none;stroke:#000000;stroke-width:8;stroke-linecap:butt;stroke-linejoin:round;stroke-miterlimit:10;stroke-dasharray:none;stroke-opacity:1"
             id="path110"
             inkscape:connector-curvature="0" /><g
             id="g112"
             transform="scale(10,10)"><text
               transform="matrix(1,0,0,-1,44.8406,136.101)"
               style="font-variant:normal;font-weight:normal;font-size:10px;font-family:Arial;-inkscape-font-specification:Arial;writing-mode:lr-tb;fill:#000000;fill-opacity:1;fill-rule:nonzero;stroke:none"
               id="text114"><tspan
                 x="0"
                 y="0"
                 id="tspan116">2</tspan></text>
</g><path
             d="m 582,1887.47 -35,0"
             style="fill:#000000;fill-opacity:1;fill-rule:nonzero;stroke:none"
             id="path118"
             inkscape:connector-curvature="0" /><path
             d="m 582,1887.47 -35,0"
             style="fill:none;stroke:#000000;stroke-width:8;stroke-linecap:butt;stroke-linejoin:round;stroke-miterlimit:10;stroke-dasharray:none;stroke-opacity:1"
             id="path120"
             inkscape:connector-curvature="0" /><g
             id="g122"
             transform="scale(10,10)"><text
               transform="matrix(1,0,0,-1,44.8406,184.95)"
               style="font-variant:normal;font-weight:normal;font-size:10px;font-family:Arial;-inkscape-font-specification:Arial;writing-mode:lr-tb;fill:#000000;fill-opacity:1;fill-rule:nonzero;stroke:none"
               id="text124"><tspan
                 x="0"
                 y="0"
                 id="tspan126">3</tspan></text>
</g><path
             d="m 582,2375.96 -35,0"
             style="fill:#000000;fill-opacity:1;fill-rule:nonzero;stroke:none"
             id="path128"
             inkscape:connector-curvature="0" /><path
             d="m 582,2375.96 -35,0"
             style="fill:none;stroke:#000000;stroke-width:8;stroke-linecap:butt;stroke-linejoin:round;stroke-miterlimit:10;stroke-dasharray:none;stroke-opacity:1"
             id="path130"
             inkscape:connector-curvature="0" /><g
             id="g132"
             transform="scale(10,10)"><text
               transform="matrix(1,0,0,-1,44.8406,233.799)"
               style="font-variant:normal;font-weight:normal;font-size:10px;font-family:Arial;-inkscape-font-specification:Arial;writing-mode:lr-tb;fill:#000000;fill-opacity:1;fill-rule:nonzero;stroke:none"
               id="text134"><tspan
                 x="0"
                 y="0"
                 id="tspan136">4</tspan></text>
</g><path
             d="m 582,2864.45 -35,0"
             style="fill:#000000;fill-opacity:1;fill-rule:nonzero;stroke:none"
             id="path138"
             inkscape:connector-curvature="0" /><path
             d="m 582,2864.45 -35,0"
             style="fill:none;stroke:#000000;stroke-width:8;stroke-linecap:butt;stroke-linejoin:round;stroke-miterlimit:10;stroke-dasharray:none;stroke-opacity:1"
             id="path140"
             inkscape:connector-curvature="0" /><g
             id="g142"
             transform="scale(10,10)"><text
               transform="matrix(1,0,0,-1,44.8406,282.648)"
               style="font-variant:normal;font-weight:normal;font-size:10px;font-family:Arial;-inkscape-font-specification:Arial;writing-mode:lr-tb;fill:#000000;fill-opacity:1;fill-rule:nonzero;stroke:none"
               id="text144"><tspan
                 x="0"
                 y="0"
                 id="tspan146">5</tspan></text>
<text
               transform="matrix(0,1,1,0,38.7625,160.202)"
               style="font-variant:normal;font-weight:normal;font-size:10px;font-family:Arial;-inkscape-font-specification:Arial;writing-mode:lr-tb;fill:#000000;fill-opacity:1;fill-rule:nonzero;stroke:none"
               id="text148"><tspan
                 x="0 5.5714893 11.689463 16.899464"
                 y="0"
                 sodipodi:role="line"
                 id="tspan150">Loss</tspan></text>
</g></g></g><g
         id="g152"><g
           id="g154"
           clip-path="url(#clipPath156)"><path
             d="m 672.629,3468 0.203,-960.31 3.438,-590.77 1.753,248.24 3.918,-760.11 3.95,-29.94 3.953,64.02 3.949,-131.59 3.918,253.65 3.953,-369.48 3.918,177.06 3.434,28.8 3.851,-381.62 3.914,166.81 3.918,-20.01 3.953,170.19 3.918,-175.56 3.95,-2.93 3.918,-41.7 3.953,266.86 3.918,-350.47 3.882,-116.327 7.317,302.397 3.953,-59.53 3.918,-106.22 3.949,292.31 3.918,-279.04 3.953,138.89 3.918,-194.64 3.949,868.25 3.852,-1089.265 3.949,346.375 3.367,-170.184 3.918,161.664 3.953,-106.12 3.918,22.41 3.95,201.46 3.918,-51.08 3.953,-233.498 3.949,144.458 3.68,-176.059 3.57,-33.657 3.918,255.516 3.953,-226.078 3.953,173.348 3.914,105.87 3.918,-30.75 3.953,-137.14 3.918,212.53 7.832,-262.323 3.61,162.383 3.711,-229.879 3.953,259.879 3.914,-50.44 3.953,68.6 3.918,-266.422 3.953,164.222 3.949,3.38 3.918,68.03 3.332,-294.683 3.953,59.883 3.954,-115.594 3.914,306.644 3.953,-175.159 3.953,-114.168 3.914,305.417 3.953,-15.62 3.953,23.63 3.949,-139.78 3.918,-97.479 3.368,73.414 3.953,23.305 3.918,-105.243 3.949,109.783 7.906,141.02 3.914,-93.76 3.953,82.79 3.953,-269.735 3.883,139.455 3.918,-46.998 3.399,-10.148 3.953,356.426 3.918,-317.891 3.949,185.361 3.949,-204.881 3.96,106.721 3.92,-57.29 3.94,226.73 3.54,-74.02 3.71,-236.594 7.88,205.044 3.94,-162.227 3.96,71.997 3.92,34.31 3.95,-103.35 3.95,31.52 3.92,-89.438 3.91,-127.512 3.51,150.605 3.81,-59.191 3.95,349.516 3.92,20.8 3.95,-185.39 3.95,-87.543 3.92,-142.164 3.96,108.433 3.91,-3.289 3.37,-56.449 3.91,104.219 3.96,-155.383 3.92,172.356 3.91,-0.35 3.92,126.02 7.87,-274.401 3.92,98.777 3.91,206.454 3.89,-231.934 3.4,-23.399 3.91,23.653 3.96,155.98 3.91,-323.222 3.95,182.484 3.92,41.797 3.96,144.991 3.91,-115.79 3.92,-197.85 3.88,27.684 3.78,-0.055 3.54,24.52 3.95,94.949 3.92,-30.684 3.95,81.866 3.92,-103.311 3.95,37.512 3.92,497.449 3.91,-411.98 3.48,-172.891 3.81,146.191 3.92,-50.672 3.91,-130.039 3.96,119.379 3.91,33.598 3.96,112.114 3.91,-174.055 3.92,184.685 3.95,-196.713 3.88,117.273 3.41,-35.234 3.88,-90.168 3.95,156.532 3.95,-33.06 3.92,-53.397 3.92,-284.481 3.95,196.223 3.92,-7.922 3.92,51.988 3.74,71.479 3.95,173.43 3.5,-153.99 3.92,-42.54 3.96,56.03 3.91,18.72 3.95,-198.754 3.92,136.516 3.95,-47.223 7.7,-129.976 3.5,80.664 3.92,44.003 3.95,29.075 3.92,-187.278 3.92,90.586 3.95,-65.008 3.92,299.035 3.95,32.54 3.91,-257.567 7.57,-81.222 3.64,103.457 3.95,412.212 7.87,-618.505 3.95,278.691 3.92,-43.719 3.92,230.153 3.91,-106.53 3.4,-201.048 3.85,-43.036 3.95,87.219 3.96,-42.328 3.92,157.903 3.91,-170.747 3.92,149.192 3.95,-124.258 3.92,66.226 3.91,295.837 3.89,-271.29 3.4,43.34 3.92,-116.644 3.91,42.605 3.92,-16.469 3.95,-112.394 3.92,171.379 3.95,-25.114 3.92,-130.562 3.95,79.684 3.92,-147.696 3.92,82.211 3.36,33.098 3.96,81.57 3.91,-140.156 3.95,84.902 3.92,-93.199 3.95,9.637 3.92,34.343 3.95,-66.007 3.65,392.572 3.64,-314.385 3.91,160.325 3.96,-200.676 3.95,80.355 3.88,-40.559 3.95,82.637 3.95,-11.625 3.92,27.504 3.95,45.219 3.92,-4.348 3.54,-51.539 3.78,178.122 3.92,-41.48 3.95,-251.782 3.92,20.093 3.95,116.215 3.91,-2.484 3.96,121.518 3.91,-44.31 3.34,-240.943 3.95,77.246 3.95,-56.906 7.87,111.547 3.91,71.774 3.96,-52.946 3.95,-78.371 7.87,141.119 3.92,-197.873 3.36,23.551 3.96,212.782 3.91,-73.606 3.95,153.296 3.92,-211.851 3.95,232.971 3.92,-110.5 3.95,38.63 3.92,80.88 3.88,-300.129 3.81,126.328 3.51,-62.59 3.92,54.07 3.91,-111.355 3.96,76.664 3.95,-123.344 3.91,-83.019 3.96,114.25 3.95,219.195 3.5,-91.25 3.79,-57.828 3.95,274.938 3.91,-64.36 3.96,-310.094 3.91,39.43 3.92,6.578 3.95,57.726 3.92,-49.605 3.95,14.332 3.92,90.824 3.43,10.672 3.89,-86.015 3.91,-200.618 3.95,148.703 3.92,215.957 3.96,-47.5 7.83,-246.73 3.92,117.031 3.36,-76.375 3.92,103.871 3.92,-26.328 3.95,-123.148 3.92,34.371 3.95,97.848 3.92,200.55 3.91,-186.629 3.95,-109.57 3.96,220.579 7.25,-226.77 3.91,50.117 3.96,-41.66 3.91,23.433 3.96,103.082 3.95,-122.64 3.91,-8.864 3.96,144.782 3.91,-173.235 3.89,356.685 3.71,-264.61 3.61,-114.344 7.9,128.16 3.92,185.624 7.86,-222.312 3.92,134.317 3.96,-140.856 3.4,-4.648 3.85,63.422 3.94,-43.797 3.92,126.312 3.96,-115.691 3.91,99.809 3.92,-280.637 3.92,120.703 3.95,184.504 3.92,-30.395 3.88,-212.711 3.4,-54.578 3.95,215.637 3.92,5.461 3.95,-17.633 3.92,-140.324 3.91,196.562 3.96,-67.132 3.95,165.767 3.92,-299.799 3.91,278.019 7.32,-193.155 3.92,-12.715 3.95,60.594 3.95,-139.649 3.92,150.797 3.95,70.961 3.92,-156.914 7.66,144.172 3.58,-289.071 3.95,6.446 3.91,160.683 3.96,67.77 3.95,-39.629 3.92,56.023 3.95,10.504 3.92,-166.507 3.95,17.539 3.88,-24.161 3.58,10.641 3.74,98.789 3.92,32.481 3.95,90.187 3.92,-33.906 3.91,35.707 3.95,-136.707 3.92,229.06 3.95,-188.388 3.34,-49.5 3.91,-0.16 3.95,36.293 3.92,-4.227 3.92,15.496 3.95,87.453 3.95,-76.558 3.92,-147.153 3.95,-85.226 3.92,134.367 3.92,-9.676 3.36,110.375 3.96,61.231 3.91,-151.364 3.92,48.012 3.95,438.225 3.92,-451.573 3.95,29.536 3.92,-49.458 3.95,-14.71 3.92,-125.207 3.88,234.082 3.4,-215.672 3.92,190.847 3.95,-107.347 3.92,218.632 3.95,-323.214 3.92,174.07 3.95,-72.371 3.92,145.793 3.57,-31.328 3.71,144.66 3.92,-219.363 3.95,168.839 3.95,-174.613 3.92,135.899 3.92,-23.672 3.95,50.234 3.91,-149.73 3.96,-53.469 3.88,489.905 3.5,-319.636 3.82,-35.921 3.91,-85.618 3.96,166.985 3.92,-215.899 3.95,23.453 3.91,-49.273 3.96,51.926 3.91,-5.145 3.37,-95.683 3.92,159.804 3.95,82.305 3.95,-92.512 3.95,29.461 3.92,-46.078 3.92,252.661 3.91,18.94 7.88,-349.32 3.88,8.407 3.4,190.519 3.95,-130.383 3.95,40.668 3.95,-129.496 3.96,27.84 3.95,4.094 3.91,172.886 3.96,-142.097 3.95,112.5 3.88,-24.832 3.78,-94.617 3.57,172.75 3.92,-260.067 3.95,169.301 3.95,106.203 3.92,-53.637 3.95,32.571 3.95,-236.629 3.92,213.015 3.47,-150.32 3.82,-12.543 3.95,89.856 3.95,-74.309 3.92,135.324 3.95,-138.617 3.95,100.52 3.95,-152.368 3.96,147.93 3.95,-120.476 3.91,240.753 3.44,-42.683 3.92,53.907 3.92,-20.099 3.98,32.099 3.92,-125.216 3.95,140.706 3.95,-141.69 3.95,118.4 3.92,-137.502 3.74,48.106 3.96,-187.289 3.54,124.05 3.95,39.25 3.91,-29.753 3.96,190.088 3.95,-137.057 3.92,-70.317 3.95,116.297 7.7,-253.238 3.54,93.469 3.94,42.277 3.92,5.492 3.96,-28.105 3.95,48.875 3.95,-35.945 3.95,182.602 3.92,-278.52 3.95,-19.313 3.88,381.493 3.65,-407.809 3.67,54.699 3.95,116.09 3.95,-78.028 3.92,-34.922 3.96,255.69 3.94,-89.482 3.96,34.078 3.95,-34.907 3.37,149.101 3.88,-146.839 3.95,116.699 3.95,-197.757 3.95,103.707 3.96,263.19 3.95,-81.39 3.95,-282.851 3.92,-34.84 3.95,34.293 3.88,-140.34 3.44,251.121 7.87,-180.281 3.95,250.378 3.95,-174.179 3.92,-5.523 3.95,34.726 3.95,-164.969 3.95,66.418 3.92,-12.304 3.92,82.996 3.4,-125.563 3.95,98.883 3.92,40.035 3.95,-171.937 3.95,94.414 3.92,-84.238 3.95,113.273 3.92,-38.016 3.64,56.055 3.64,145.856 3.95,-183.161 3.92,205.954 3.95,-322.227 3.95,106.363 11.79,100.41 3.95,-70.82 3.92,-6.43 3.54,98.067 3.81,-40.582 3.92,37.429 3.95,-47.589 3.95,-152.641 3.95,333.05 3.96,-74.437 3.92,-105.941 3.95,44.226 3.36,-167.246 3.92,51.375 3.95,152.922 3.92,-128.734 3.99,-20.445 3.91,52.539 3.95,-111.125 3.96,228.089 3.91,-82.253 3.95,-18.215 3.92,-101 3.37,-44.633 3.95,142.832 3.95,-157.672 3.95,349.258 3.92,-185.695 3.96,307.405 3.91,-308.249 3.95,-23.391 3.96,-87.359 3.91,215.152 3.85,-10.281 3.47,-157.914 3.95,7.984 3.96,305.548 3.91,-379.45 3.99,89.793 3.95,-28.899 3.92,-2.097 3.95,70.902 3.47,104.441 3.78,-86.578 3.95,50.243 3.95,-56.54 3.95,-31.085 3.95,139.668 3.92,29.072 3.95,-153.612 3.96,-104.191 3.91,250.263 3.92,-209.091 3.47,-28.328 3.85,-70.731 3.95,63.633 7.91,91.535 3.91,-67.949 3.95,-34.195 3.96,40.992 3.95,62.449 3.33,-103.758 3.99,83.84 3.91,57.426 3.96,-88.391 3.95,105.805 7.9,-141.894 3.95,148.765 3.92,-18.555 3.95,-146.664 3.81,7.454 3.51,109.968 7.9,-101.25 3.92,13.125 3.95,134.645 3.96,36.277 3.94,357.972 3.92,-507.124 3.96,58.637 3.88,214.097 3.71,-221.383 3.61,-68.687 3.95,288.15 3.95,-78.455 7.87,-287.41 3.92,239.285 3.95,-235.539 3.91,122.262 3.41,-119.242 3.88,406.079 3.92,-342.622 3.95,148.215 3.95,-195.344 3.92,39.054 3.95,-1.23 3.95,138.937 3.92,-151.093 3.95,37.074 3.92,83.641 3.4,103.457 3.92,-46.7 3.95,-8.972 7.9,-201.266 3.92,66.402 3.95,-70.664 3.95,208.727 3.92,-110.285 3.92,-50.446 3.91,112.266 3.41,-110.609 3.95,8.402 3.95,81.176 7.87,-177.293 3.95,166.433 3.95,-70.546 3.92,56.043 3.68,-27.969 3.61,-154.387 3.91,150.063 3.95,-19.461 3.96,-0.879 3.91,-30.856 7.91,126.657 3.95,-132.938 3.95,204.152 3.88,-46.816 3.58,-232.375 7.66,264.871 3.95,-117.934 3.95,208.695 3.95,-164.698 3.92,73.82 3.95,-165.539 3.96,143.652 3.36,-230.09 3.92,43.18 3.95,3.59 3.92,92.851 3.95,63.282 3.95,-28.965 3.95,78.133 3.95,-213.832 7.87,218.609 3.92,-120.949 3.4,-68.766 3.95,-41.086 3.96,71.918 3.91,-52.715 3.95,31.192 7.87,162.683 3.95,-221.062 3.92,80.472 3.92,5.547 3.88,161.606 3.47,-227.32 3.95,65.906 3.92,-71.207 3.96,71.152 3.94,4.676 3.96,21.437 3.95,72.977 3.95,-126.309 3.54,137.465 3.75,1.887 3.91,19.269 3.96,-131.617 3.95,-70.375 3.91,51.387 3.96,-99.129 7.9,175.68 3.92,-24.918 3.88,63.324 3.5,-58.676 3.85,179.458 3.95,-219.497 3.95,83.082 3.96,-134.594 3.91,72.008 3.96,-45.113 3.95,57.66 3.95,-43.043 3.37,-61.203 3.92,159.129 3.94,-22.57 3.92,73.824 3.96,-105.653 3.94,152.313 3.92,-282.742 3.96,100.031 3.95,19.254 3.95,-0.074 3.85,70.156 3.43,-166.68 3.96,140.254 3.91,-65.304 3.95,13.617 3.96,71.976 3.95,-54.984 3.91,112.129 3.96,-171.156 3.95,84.617 3.85,-137.961 7.35,176.734 3.95,-58.68 3.95,-28.781 3.95,-41.039 3.92,-6.43 3.95,103.344 3.96,-130.297 3.95,149.547 3.47,-10.019 3.81,-49.231 3.95,54.981 3.96,89.5 3.95,-23.414 3.91,-86.879 3.96,-16.434 3.95,-90.789 7.87,291.151 3.91,-176.19 3.41,-73.77 3.95,137.395 3.91,31.742 3.96,-125.742 3.95,-54.297 3.95,-38.406 3.92,54.656 3.95,158.535 3.91,-117.668 3.92,-26.269 3.96,113.176 3.36,-43.145 3.96,-154.223 3.91,3.606 3.95,143.855 3.92,-18.711 3.95,-131.593 3.95,63.527 3.96,137.711 3.74,-26.32 3.57,-117.782 3.96,59.125 3.91,-9.695 3.96,100.852 3.95,49.652 7.87,-248.527 3.95,97.359 3.95,-3.09 3.92,0.645 3.64,28.355 3.71,-39.117 3.92,-54.004 3.95,216.906 3.95,-254.918 3.95,81.672 7.87,97.598 3.95,2.937 3.41,-176.019 3.91,125.875 3.95,-26.594 3.96,17.668 3.95,-59.582 3.95,68.152 3.95,-28.961 3.92,-48.671 3.95,50.082 3.95,91.332 3.92,-83.481 3.4,98.774 7.9,-95.289 3.95,314.837 3.96,-425.826 3.95,153.621 3.95,-139.066 3.95,32.668 3.96,10.711 3.91,-24.637 3.95,85.789 3.4,21.633 3.99,-113.676 3.95,22.11 3.96,158.414 3.94,-45.86 3.96,-129.039 3.95,274.078 3.95,73.71 7.32,-325.8 3.95,-35.128 3.95,61.898 3.96,-4.281 3.95,-95.903 3.98,71.805 3.92,-8.812 3.95,48.586 3.95,-1.301 3.92,-185.852 3.54,160.231 3.81,77.074 7.91,220.033 3.95,-276.494 3.95,-25.688 3.99,45.77 3.91,-83.367 3.99,8.168 3.37,248.14 3.95,-161.996 3.95,-69.101 3.95,82.75 3.95,4.277 3.96,-52.625 7.9,22.145 3.88,-58.567 7.32,129.297 3.03,-92.601 3.88,-5.973 3.95,-108.496 3.95,213.75 3.95,-37.606 3.95,225.727 7.94,-341.008 3.92,149.293 3.92,104.023 3.81,-280.343 3.54,116.054 3.99,27.551 3.95,-28.308 3.95,-51.891 0,0"
             style="fill:none;stroke:#0000ff;stroke-width:15;stroke-linecap:square;stroke-linejoin:round;stroke-miterlimit:10;stroke-dasharray:none;stroke-opacity:1"
             id="path160"
             inkscape:connector-curvature="0" /><path
             d="m 676.125,3468 0.867,-1743.27 7.215,-380.37 7.973,10.3 7.972,-326.73 7.903,40.4 6.906,-299.385 7.937,264.775 15.43,-232.923 7.836,168.129 7.594,-88.942 7.387,-35.695 7.902,259.191 7.871,-249.632 7.867,30.457 7.113,-70.578 7.872,213.743 7.902,-94.595 7.867,-203.82 7.871,38.832 7.18,73.039 7.765,599.624 7.872,-567.327 7.902,-213.532 7.836,153.356 7.488,-20.547 7.527,14.246 7.868,8.617 7.836,33.328 7.836,-35.957 7.078,-140.398 7.867,484.484 7.836,-549.91 7.867,140.317 7.836,-83.004 7.422,270.554 7.527,-37.957 7.832,-205.183 7.836,131.199 7.902,76.281 7.079,16.223 7.871,48.055 7.867,-218.317 7.9,-27.418 7.87,-88.262 7.12,68.766 7.86,27.34 7.91,64.109 7.9,-102.824 7.87,-34.859 7.73,44.718 7.29,62.071 7.87,-80.864 7.93,152.176 7.91,-80.793 7.14,10.606 7.87,-63.18 7.91,79.387 7.9,120.051 7.9,-28.329 7.36,-173.839 7.69,62.73 7.91,24.539 7.93,-104.164 7.91,69.188 7.52,-5.239 7.5,26.672 7.9,-22.23 7.87,-111.032 7.94,158.688 7.07,-9.582 7.91,-111.66 7.9,278.207 7.87,-267.832 7.87,-26.293 7.63,-9.817 7.35,240.579 7.87,-236.54 7.87,119.383 7.83,65.957 7.12,-242.246 7.87,58.246 7.86,-49.593 7.84,300.187 7.83,-134.375 7.05,28.18 7.73,-72.137 7.83,-47.996 7.87,86.691 7.9,-92.34 7.5,40.086 7.42,98.301 7.9,-90.844 7.87,-34.421 7.87,46.378 7.11,54.493 7.87,97.468 7.91,-148.628 15.77,-95.333 7.49,68.379 7.49,-26.004 7.9,111.676 7.87,-112.484 7.91,48.797 7.11,-82.656 7.9,61.648 7.9,-1.414 7.87,-40.32 7.94,63.515 7.15,11.696 7.77,118.484 7.73,-69.008 7.93,-88.496 7.91,89.035 7.76,12.602 7.25,-50.016 7.91,-145.851 7.9,94.558 7.9,75.375 7.12,-63.047 7.9,52.52 7.9,-92.676 7.91,19.766 7.9,1.519 7.35,-37.621 7.67,61.586 7.87,34.168 7.93,-66.359 7.87,74.75 7.11,-66.434 7.94,26.281 7.8,-27.582 7.9,-15.851 7.91,43.679 7.11,-54.382 7.87,-13.688 7.9,59.707 7.94,176.008 7.87,-259.68 7.7,39.051 7.32,252.168 7.9,-159.961 7.87,-107.863 14.88,37.797 7.9,-30.079 7.87,-10.789 7.87,-1.433 7.9,-41.453 7.29,20.351 7.8,-7.461 7.9,-3.152 7.9,7.406 7.91,-59.226 7.49,48.484 7.46,-37.41 7.93,73.144 7.91,35.981 7.93,102.18 7.15,-169.594 7.87,80.375 7.94,-42.156 7.94,0.867 7.9,87.343 7.56,-134.878 7.46,68.578 7.93,457.055 7.94,-409.114 7.94,-129.875 7.15,25.574 7.86,-56.687 7.94,194.152 7.94,-155.156 7.94,78.293 7.21,129.398 7.87,-215.406 7.94,6.512 7.91,22.031 7.93,29.273 7.87,130.602 7.22,-89.434 7.9,-14.871 7.9,-94.578 7.91,59.879 7.11,13.555 7.9,58.238 7.91,-23.828 15.8,-64.516 7.42,80.664 7.6,-137.984 7.9,151.887 7.87,46.261 7.9,-96.906 7.08,15.086 7.91,176.914 7.87,-134.379 7.9,-29.773 7.9,132.465 7.15,-192.063 7.91,52.016 7.86,65.906 7.9,148.051 7.91,-170.434 7.77,-56.355 7.28,-4.113 7.9,-90.454 7.91,110.504 7.9,-24.558 7.15,-35.321 7.9,53.961 7.94,-63.714 7.9,1.773 7.91,-50.484 7.35,67.218 7.7,-21.5 7.9,-69.14 7.9,153.953 7.91,63.156 7.52,-62.746 7.53,36.383 7.94,-100.246 7.9,-2.996 7.94,-76.832 7.14,254.82 7.94,-143.137 7.9,23.02 7.94,-93.711 7.9,-8.61 7.63,135.563 7.42,-121.828 7.94,-13.297 7.94,-9.188 7.94,-19.89 7.15,90.738 7.93,118.731 7.94,-230.012 7.9,123.844 7.91,-71.977 7.21,12.672 7.8,53.109 7.91,-69.711 7.93,2.571 7.91,499.051 7.52,-501.508 7.53,-5.043 7.9,34.328 7.94,59.847 7.9,-24.937 7.15,4.359 7.9,-127.597 7.91,107.109 7.9,27.312 7.91,-126.101 7.52,109.504 15.46,-81.035 7.91,46.14 7.9,83.989 7.11,-46.418 7.9,20.984 7.91,-55.313 7.9,-13.261 7.9,-18.633 7.15,-3.152 7.84,131.937 7.9,-164.59 7.9,449.099 7.91,-381.681 7.8,-12.832 7.25,60.149 7.9,-107.039 7.91,22.359 7.86,36.16 7.12,-58.316 7.9,161.218 7.9,-113.535 7.91,-36.554 7.9,15.004 7.39,82.464 7.66,-75.015 7.9,47.109 7.91,-29.625 7.94,54.125 7.11,-110.555 7.94,-30.39 7.9,66.027 7.9,193.832 7.94,-234.504 7.11,160.352 23.75,-119.371 7.9,-22.067 7.7,-28.445 7.35,76.727 7.94,-54.262 7.94,17.683 7.9,-19.433 7.15,124.433 7.93,-98.187 7.91,44.793 7.93,4.625 7.94,31.164 7.29,-14.535 7.76,-44.774 7.98,80.168 7.9,-122.515 7.9,-0.27 7.56,19.715 7.5,-48.777 7.9,35.136 7.93,-0.777 7.94,116.172 7.15,-187.543 7.94,162.012 7.94,-77.852 7.9,-40.277 7.97,23.703 7.56,132.766 7.49,5.488 7.9,-119.399 7.91,34.524 7.9,-74.195 7.15,20.269 7.94,37.703 7.94,-17.777 7.9,61.246 7.94,-30.527 7.18,-98.422 7.87,122.574 7.93,-58.723 7.91,-26.234 7.93,56.308 7.84,-2.421 7.21,-7.582 7.91,39.675 7.94,-84.964 7.94,82.75 7.14,-4.586 7.94,-9.997 7.9,22.754 7.94,100.43 15.43,-214.457 7.63,231.781 7.97,-171.605 7.94,-44.016 7.93,-17.125 7.15,134.785 7.98,9.661 7.97,-104.809 7.94,59.137 7.93,-48.875 7.12,-74.711 15.87,176.75 7.94,-7.825 7.94,-56.269 7.76,333.879 7.32,-384.539 7.94,56.269 7.94,17.852 7.9,120.406 7.18,-202.301 7.94,72.188 7.9,-10.43 7.91,-86.926 7.93,94.418 7.29,32.032 7.76,-93.965 7.91,-26.137 7.93,287.984 7.94,-210.988 7.49,-48.129 7.53,53.254 7.94,-89.672 7.9,2.809 7.9,36.746 7.19,-15.391 7.93,42.723 7.94,-48.352 7.94,29.016 7.9,1.699 7.67,35.762 7.42,-29.531 7.93,-19.645 7.98,-0.019 7.9,31.175 7.15,-11.902 7.94,-40.016 7.9,78.305 7.94,30.57 15.15,-89.453 7.8,-13.617 7.97,66.348 15.81,40.89 7.56,-63.496 7.52,31.149 7.94,-91.11 7.94,40.282 7.94,19.125 7.11,8.394 7.94,20.906 7.94,51.95 7.93,-110.868 7.94,12.454 7.49,-22.7 7.59,13.672 7.98,25.77 7.9,48.613 7.94,-115.223 7.14,81.754 7.98,-12.492 7.93,-47.289 7.94,80.609 7.97,5.032 7.22,14.183 7.87,43.414 7.97,-80.839 7.94,17.789 7.94,-4.918 7.83,-11.508 7.32,91.574 7.94,-4.16 7.94,-131.82 7.97,266.894 7.11,-92.203 7.94,-148.313 7.97,28.543 7.9,102.961 7.94,-183.218 7.39,96.957 7.73,363.769 7.9,-378.992 7.94,-67.914 7.94,61.555 7.15,67.156 7.94,18.781 7.97,-169.379 0,0"
             style="fill:none;stroke:#bf00bf;stroke-width:15;stroke-linecap:square;stroke-linejoin:round;stroke-miterlimit:10;stroke-dasharray:none;stroke-opacity:1"
             id="path162"
             inkscape:connector-curvature="0" /></g></g><g
         id="g164"><g
           id="g166"
           clip-path="url(#clipPath168)"><path
             d="m 582,382.16 0,2661.12"
             style="fill:none;stroke:#000000;stroke-width:8;stroke-linecap:square;stroke-linejoin:miter;stroke-miterlimit:10;stroke-dasharray:none;stroke-opacity:1"
             id="path172"
             inkscape:connector-curvature="0" /><path
             d="m 4153.2,382.16 0,2661.12"
             style="fill:none;stroke:#000000;stroke-width:8;stroke-linecap:square;stroke-linejoin:miter;stroke-miterlimit:10;stroke-dasharray:none;stroke-opacity:1"
             id="path174"
             inkscape:connector-curvature="0" /><path
             d="m 582,382.16 3571.2,0"
             style="fill:none;stroke:#000000;stroke-width:8;stroke-linecap:square;stroke-linejoin:miter;stroke-miterlimit:10;stroke-dasharray:none;stroke-opacity:1"
             id="path176"
             inkscape:connector-curvature="0" /><path
             d="m 582,3043.28 3571.2,0"
             style="fill:none;stroke:#000000;stroke-width:8;stroke-linecap:square;stroke-linejoin:miter;stroke-miterlimit:10;stroke-dasharray:none;stroke-opacity:1"
             id="path178"
             inkscape:connector-curvature="0" /><g
             id="g180"
             transform="scale(10,10)"><text
               transform="matrix(1,0,0,-1,183.58,310.328)"
               style="font-variant:normal;font-weight:normal;font-size:12px;font-family:Arial;-inkscape-font-specification:Arial;writing-mode:lr-tb;fill:#000000;fill-opacity:1;fill-rule:nonzero;stroke:none"
               id="text182"><tspan
                 x="0 8.3789053 11.712892 19.066401 25.318401 31.5704 34.904373 39.128986 42.462959 49.060616 56.414124 61.119198 64.453171 71.794975 79.400436 83.214897 86.548874 93.890671 100.14268"
                 y="0"
                 sodipodi:role="line"
                 id="tspan184">Classification loss</tspan></text>
</g><path
             d="m 2748.2,2669.84 1335,0 c 13.34,0 20,6.67 20,20 l 0,283.44 c 0,13.33 -6.66,20 -20,20 l -1335,0 c -13.33,0 -20,-6.67 -20,-20 l 0,-283.44 c 0,-13.33 6.67,-20 20,-20"
             style="fill:#ffffff;fill-opacity:1;fill-rule:nonzero;stroke:none"
             id="path186"
             inkscape:connector-curvature="0" /><path
             d="m 2748.2,2669.84 1335,0 c 13.34,0 20,6.67 20,20 l 0,283.44 c 0,13.33 -6.66,20 -20,20 l -1335,0 c -13.33,0 -20,-6.67 -20,-20 l 0,-283.44 c 0,-13.33 6.67,-20 20,-20 z"
             style="fill:none;stroke:#cccccc;stroke-width:10;stroke-linecap:butt;stroke-linejoin:miter;stroke-miterlimit:10;stroke-dasharray:none;stroke-opacity:1"
             id="path188"
             inkscape:connector-curvature="0" /><path
             d="m 2768.2,2912.34 200,0"
             style="fill:none;stroke:#0000ff;stroke-width:15;stroke-linecap:square;stroke-linejoin:round;stroke-miterlimit:10;stroke-dasharray:none;stroke-opacity:1"
             id="path190"
             inkscape:connector-curvature="0" /><g
             id="g192"
             transform="scale(10,10)"><text
               transform="matrix(1,0,0,-1,304.82,287.734)"
               style="font-variant:normal;font-weight:normal;font-size:10px;font-family:Arial;-inkscape-font-specification:Arial;writing-mode:lr-tb;fill:#000000;fill-opacity:1;fill-rule:nonzero;stroke:none"
               id="text194"><tspan
                 x="0 6.0929589 10.204277 16.332006 19.110518 25.448418 28.226538 34.564438 40.912094 44.090996 47.699188 50.87809 59.505821 65.633942 71.97184 78.309738 84.437469"
                 y="0"
                 sodipodi:role="line"
                 id="tspan196">Training - Manual</tspan></text>
</g><path
             d="m 2768.2,2765.63 200,0"
             style="fill:none;stroke:#bf00bf;stroke-width:15;stroke-linecap:square;stroke-linejoin:round;stroke-miterlimit:10;stroke-dasharray:none;stroke-opacity:1"
             id="path198"
             inkscape:connector-curvature="0" /><g
             id="g200"
             transform="scale(10,10)"><text
               transform="matrix(1,0,0,-1,304.82,273.063)"
               style="font-variant:normal;font-weight:normal;font-size:10px;font-family:Arial;-inkscape-font-specification:Arial;writing-mode:lr-tb;fill:#000000;fill-opacity:1;fill-rule:nonzero;stroke:none"
               id="text202"><tspan
                 x="0 6.0929589 10.204277 16.332006 19.110518 25.448418 28.226538 34.564438 40.912094 44.090996 47.699188 50.87809 57.005821 63.343719 67.264816 73.38279 83.124207 89.251938 93.173035 95.951157"
                 y="0"
                 sodipodi:role="line"
                 id="tspan204">Training - automatic</tspan></text>
</g></g></g></g><text
       xml:space="preserve"
       style="font-style:normal;font-weight:normal;font-size:8px;line-height:125%;font-family:sans-serif;letter-spacing:0px;word-spacing:0px;fill:#000000;fill-opacity:1;stroke:none;stroke-width:1px;stroke-linecap:butt;stroke-linejoin:miter;stroke-opacity:1"
       x="228.44643"
       y="-12.404321"
       id="text3532"
       sodipodi:linespacing="125%"
       transform="scale(1,-1)"><tspan
         sodipodi:role="line"
         id="tspan3534"
         x="228.44643"
         y="-12.404321">Batches</tspan></text>
</g></svg>