<?xml version="1.0" encoding="UTF-8" standalone="no"?>
<!-- Created with Inkscape (http://www.inkscape.org/) -->

<svg
   xmlns:dc="http://purl.org/dc/elements/1.1/"
   xmlns:cc="http://creativecommons.org/ns#"
   xmlns:rdf="http://www.w3.org/1999/02/22-rdf-syntax-ns#"
   xmlns:svg="http://www.w3.org/2000/svg"
   xmlns="http://www.w3.org/2000/svg"
   xmlns:sodipodi="http://sodipodi.sourceforge.net/DTD/sodipodi-0.dtd"
   xmlns:inkscape="http://www.inkscape.org/namespaces/inkscape"
   id="svg2"
   version="1.1"
   inkscape:version="0.91 r13725"
   xml:space="preserve"
   width="576.25"
   height="431.25"
   viewBox="0 0 576.25 431.25"
   sodipodi:docname="localization_loss_manual_vs_automatic_training_zoomed.svg"><metadata
     id="metadata8"><rdf:RDF><cc:Work
         rdf:about=""><dc:format>image/svg+xml</dc:format><dc:type
           rdf:resource="http://purl.org/dc/dcmitype/StillImage" /><dc:title></dc:title></cc:Work></rdf:RDF></metadata><defs
     id="defs6"><clipPath
       clipPathUnits="userSpaceOnUse"
       id="clipPath18"><path
         d="m 6,2 0,3448 4604,0 L 4610,2 6,2 Z"
         id="path20"
         inkscape:connector-curvature="0" /></clipPath><clipPath
       clipPathUnits="userSpaceOnUse"
       id="clipPath146"><path
         d="m 582,382.199 3571,0 0,2661 -3571,0 0,-2661 z"
         id="path148"
         inkscape:connector-curvature="0" /></clipPath><clipPath
       clipPathUnits="userSpaceOnUse"
       id="clipPath158"><path
         d="m 6,2 0,3448 4604,0 L 4610,2 6,2 Z"
         id="path160"
         inkscape:connector-curvature="0" /></clipPath></defs><sodipodi:namedview
     pagecolor="#ffffff"
     bordercolor="#666666"
     borderopacity="1"
     objecttolerance="10"
     gridtolerance="10"
     guidetolerance="10"
     inkscape:pageopacity="0"
     inkscape:pageshadow="2"
     inkscape:window-width="1091"
     inkscape:window-height="649"
     id="namedview4"
     showgrid="false"
     inkscape:zoom="1.5478465"
     inkscape:cx="238.88203"
     inkscape:cy="153.00129"
     inkscape:window-x="0"
     inkscape:window-y="0"
     inkscape:window-maximized="0"
     inkscape:current-layer="g10" /><g
     id="g10"
     inkscape:groupmode="layer"
     inkscape:label="ink_ext_XXXXXX"
     transform="matrix(1.25,0,0,-1.25,0,431.25)"><g
       id="g12"
       transform="scale(0.1,0.1)"><g
         id="g14"><g
           id="g16"
           clip-path="url(#clipPath18)"><path
             d="m 6,2 4608,0 0,3456 L 6,3458 6,2 Z"
             style="fill:#ffffff;fill-opacity:1;fill-rule:nonzero;stroke:none"
             id="path22"
             inkscape:connector-curvature="0" /><path
             d="m 582,382.16 3571.2,0 0,2661.12 -3571.2,0 0,-2661.12 z"
             style="fill:#ffffff;fill-opacity:1;fill-rule:nonzero;stroke:none"
             id="path24"
             inkscape:connector-curvature="0" /><path
             d="m 683.41,382.16 0,-35"
             style="fill:#000000;fill-opacity:1;fill-rule:nonzero;stroke:none"
             id="path26"
             inkscape:connector-curvature="0" /><path
             d="m 683.41,382.16 0,-35"
             style="fill:none;stroke:#000000;stroke-width:8;stroke-linecap:butt;stroke-linejoin:round;stroke-miterlimit:10;stroke-dasharray:none;stroke-opacity:1"
             id="path28"
             inkscape:connector-curvature="0" /><g
             id="g30"
             transform="scale(10,10)"><text
               transform="matrix(1,0,0,-1,65.1613,23.6223)"
               style="font-variant:normal;font-weight:normal;font-size:10px;font-family:Arial;-inkscape-font-specification:Arial;writing-mode:lr-tb;fill:#000000;fill-opacity:1;fill-rule:nonzero;stroke:none"
               id="text32"><tspan
                 x="0"
                 y="0"
                 id="tspan34">0</tspan></text>
</g><path
             d="m 1359.13,382.16 0,-35"
             style="fill:#000000;fill-opacity:1;fill-rule:nonzero;stroke:none"
             id="path36"
             inkscape:connector-curvature="0" /><path
             d="m 1359.13,382.16 0,-35"
             style="fill:none;stroke:#000000;stroke-width:8;stroke-linecap:butt;stroke-linejoin:round;stroke-miterlimit:10;stroke-dasharray:none;stroke-opacity:1"
             id="path38"
             inkscape:connector-curvature="0" /><g
             id="g40"
             transform="scale(10,10)"><text
               transform="matrix(1,0,0,-1,120.015,23.6223)"
               style="font-variant:normal;font-weight:normal;font-size:10px;font-family:Arial;-inkscape-font-specification:Arial;writing-mode:lr-tb;fill:#000000;fill-opacity:1;fill-rule:nonzero;stroke:none"
               id="text42"><tspan
                 x="0 6.362112 12.724614 19.086725 25.449228"
                 y="0"
                 sodipodi:role="line"
                 id="tspan44">20000</tspan></text>
</g><path
             d="m 2034.85,382.16 0,-35"
             style="fill:#000000;fill-opacity:1;fill-rule:nonzero;stroke:none"
             id="path46"
             inkscape:connector-curvature="0" /><path
             d="m 2034.85,382.16 0,-35"
             style="fill:none;stroke:#000000;stroke-width:8;stroke-linecap:butt;stroke-linejoin:round;stroke-miterlimit:10;stroke-dasharray:none;stroke-opacity:1"
             id="path48"
             inkscape:connector-curvature="0" /><g
             id="g50"
             transform="scale(10,10)"><text
               transform="matrix(1,0,0,-1,187.587,23.6223)"
               style="font-variant:normal;font-weight:normal;font-size:10px;font-family:Arial;-inkscape-font-specification:Arial;writing-mode:lr-tb;fill:#000000;fill-opacity:1;fill-rule:nonzero;stroke:none"
               id="text52"><tspan
                 x="0 6.3625026 12.724614 19.087105 25.449203"
                 y="0"
                 sodipodi:role="line"
                 id="tspan54">40000</tspan></text>
</g><path
             d="m 2710.57,382.16 0,-35"
             style="fill:#000000;fill-opacity:1;fill-rule:nonzero;stroke:none"
             id="path56"
             inkscape:connector-curvature="0" /><path
             d="m 2710.57,382.16 0,-35"
             style="fill:none;stroke:#000000;stroke-width:8;stroke-linecap:butt;stroke-linejoin:round;stroke-miterlimit:10;stroke-dasharray:none;stroke-opacity:1"
             id="path58"
             inkscape:connector-curvature="0" /><g
             id="g60"
             transform="scale(10,10)"><text
               transform="matrix(1,0,0,-1,255.159,23.6223)"
               style="font-variant:normal;font-weight:normal;font-size:10px;font-family:Arial;-inkscape-font-specification:Arial;writing-mode:lr-tb;fill:#000000;fill-opacity:1;fill-rule:nonzero;stroke:none"
               id="text62"><tspan
                 x="0 6.3624902 12.72459 19.08708 25.449181"
                 y="0"
                 sodipodi:role="line"
                 id="tspan64">60000</tspan></text>
</g><path
             d="m 3386.29,382.16 0,-35"
             style="fill:#000000;fill-opacity:1;fill-rule:nonzero;stroke:none"
             id="path66"
             inkscape:connector-curvature="0" /><path
             d="m 3386.29,382.16 0,-35"
             style="fill:none;stroke:#000000;stroke-width:8;stroke-linecap:butt;stroke-linejoin:round;stroke-miterlimit:10;stroke-dasharray:none;stroke-opacity:1"
             id="path68"
             inkscape:connector-curvature="0" /><g
             id="g70"
             transform="scale(10,10)"><text
               transform="matrix(1,0,0,-1,322.731,23.6223)"
               style="font-variant:normal;font-weight:normal;font-size:10px;font-family:Arial;-inkscape-font-specification:Arial;writing-mode:lr-tb;fill:#000000;fill-opacity:1;fill-rule:nonzero;stroke:none"
               id="text72"><tspan
                 x="0 6.3620996 12.72459 19.086689 25.449181"
                 y="0"
                 sodipodi:role="line"
                 id="tspan74">80000</tspan></text>
</g><path
             d="m 4062.01,382.16 0,-35"
             style="fill:#000000;fill-opacity:1;fill-rule:nonzero;stroke:none"
             id="path76"
             inkscape:connector-curvature="0" /><path
             d="m 4062.01,382.16 0,-35"
             style="fill:none;stroke:#000000;stroke-width:8;stroke-linecap:butt;stroke-linejoin:round;stroke-miterlimit:10;stroke-dasharray:none;stroke-opacity:1"
             id="path78"
             inkscape:connector-curvature="0" /><g
             id="g80"
             transform="scale(10,10)"><text
               transform="matrix(1,0,0,-1,387.123,23.6223)"
               style="font-variant:normal;font-weight:normal;font-size:10px;font-family:Arial;-inkscape-font-specification:Arial;writing-mode:lr-tb;fill:#000000;fill-opacity:1;fill-rule:nonzero;stroke:none"
               id="text82"><tspan
                 x="0 6.3620996 12.72459 19.086689 25.449181 31.811279"
                 y="0"
                 sodipodi:role="line"
                 id="tspan84">100000</tspan><tspan
                 x="0"
                 y="0"
                 sodipodi:role="line"
                 id="tspan86" /></text>
</g><path
             d="m 582,898.988 -35,0"
             style="fill:#000000;fill-opacity:1;fill-rule:nonzero;stroke:none"
             id="path88"
             inkscape:connector-curvature="0" /><path
             d="m 582,898.988 -35,0"
             style="fill:none;stroke:#000000;stroke-width:8;stroke-linecap:butt;stroke-linejoin:round;stroke-miterlimit:10;stroke-dasharray:none;stroke-opacity:1"
             id="path90"
             inkscape:connector-curvature="0" /><g
             id="g92"
             transform="scale(10,10)"><text
               transform="matrix(1,0,0,-1,35.2938,86.102)"
               style="font-variant:normal;font-weight:normal;font-size:10px;font-family:Arial;-inkscape-font-specification:Arial;writing-mode:lr-tb;fill:#000000;fill-opacity:1;fill-rule:nonzero;stroke:none"
               id="text94"><tspan
                 x="0 6.3624992 9.5410166"
                 y="0"
                 sodipodi:role="line"
                 id="tspan96">0.2</tspan></text>
</g><path
             d="m 582,1425.52 -35,0"
             style="fill:#000000;fill-opacity:1;fill-rule:nonzero;stroke:none"
             id="path98"
             inkscape:connector-curvature="0" /><path
             d="m 582,1425.52 -35,0"
             style="fill:none;stroke:#000000;stroke-width:8;stroke-linecap:butt;stroke-linejoin:round;stroke-miterlimit:10;stroke-dasharray:none;stroke-opacity:1"
             id="path100"
             inkscape:connector-curvature="0" /><g
             id="g102"
             transform="scale(10,10)"><text
               transform="matrix(1,0,0,-1,35.2938,138.755)"
               style="font-variant:normal;font-weight:normal;font-size:10px;font-family:Arial;-inkscape-font-specification:Arial;writing-mode:lr-tb;fill:#000000;fill-opacity:1;fill-rule:nonzero;stroke:none"
               id="text104"><tspan
                 x="0 6.3624992 9.5410166"
                 y="0"
                 sodipodi:role="line"
                 id="tspan106">0.4</tspan></text>
</g><path
             d="m 582,1952.04 -35,0"
             style="fill:#000000;fill-opacity:1;fill-rule:nonzero;stroke:none"
             id="path108"
             inkscape:connector-curvature="0" /><path
             d="m 582,1952.04 -35,0"
             style="fill:none;stroke:#000000;stroke-width:8;stroke-linecap:butt;stroke-linejoin:round;stroke-miterlimit:10;stroke-dasharray:none;stroke-opacity:1"
             id="path110"
             inkscape:connector-curvature="0" /><g
             id="g112"
             transform="scale(10,10)"><text
               transform="matrix(1,0,0,-1,35.2938,191.407)"
               style="font-variant:normal;font-weight:normal;font-size:10px;font-family:Arial;-inkscape-font-specification:Arial;writing-mode:lr-tb;fill:#000000;fill-opacity:1;fill-rule:nonzero;stroke:none"
               id="text114"><tspan
                 x="0 6.3624992 9.5410166"
                 y="0"
                 sodipodi:role="line"
                 id="tspan116">0.6</tspan></text>
</g><path
             d="m 582,2478.57 -35,0"
             style="fill:#000000;fill-opacity:1;fill-rule:nonzero;stroke:none"
             id="path118"
             inkscape:connector-curvature="0" /><path
             d="m 582,2478.57 -35,0"
             style="fill:none;stroke:#000000;stroke-width:8;stroke-linecap:butt;stroke-linejoin:round;stroke-miterlimit:10;stroke-dasharray:none;stroke-opacity:1"
             id="path120"
             inkscape:connector-curvature="0" /><g
             id="g122"
             transform="scale(10,10)"><text
               transform="matrix(1,0,0,-1,35.2938,244.06)"
               style="font-variant:normal;font-weight:normal;font-size:10px;font-family:Arial;-inkscape-font-specification:Arial;writing-mode:lr-tb;fill:#000000;fill-opacity:1;fill-rule:nonzero;stroke:none"
               id="text124"><tspan
                 x="0 6.3624992 9.5410166"
                 y="0"
                 sodipodi:role="line"
                 id="tspan126">0.8</tspan></text>
</g><path
             d="m 582,3005.1 -35,0"
             style="fill:#000000;fill-opacity:1;fill-rule:nonzero;stroke:none"
             id="path128"
             inkscape:connector-curvature="0" /><path
             d="m 582,3005.1 -35,0"
             style="fill:none;stroke:#000000;stroke-width:8;stroke-linecap:butt;stroke-linejoin:round;stroke-miterlimit:10;stroke-dasharray:none;stroke-opacity:1"
             id="path130"
             inkscape:connector-curvature="0" /><g
             id="g132"
             transform="scale(10,10)"><text
               transform="matrix(1,0,0,-1,35.2938,296.713)"
               style="font-variant:normal;font-weight:normal;font-size:10px;font-family:Arial;-inkscape-font-specification:Arial;writing-mode:lr-tb;fill:#000000;fill-opacity:1;fill-rule:nonzero;stroke:none"
               id="text134"><tspan
                 x="0 6.3624992 9.5410166"
                 y="0"
                 sodipodi:role="line"
                 id="tspan136">1.0</tspan></text>
<text
               transform="matrix(0,1,1,0,29.2156,160.202)"
               style="font-variant:normal;font-weight:normal;font-size:10px;font-family:Arial;-inkscape-font-specification:Arial;writing-mode:lr-tb;fill:#000000;fill-opacity:1;fill-rule:nonzero;stroke:none"
               id="text138"><tspan
                 x="0 5.5714893 11.689463 16.899464"
                 y="0"
                 sodipodi:role="line"
                 id="tspan140">Loss</tspan></text>
</g></g></g><g
         id="g142"><g
           id="g144"
           clip-path="url(#clipPath146)"><path
             d="m 686.016,3468 0.269,-771.96 3.379,-1033.6 1.723,717.89 3.851,-587.39 3.883,-384.76 3.887,-52.95 3.887,83.24 3.851,-29.9 3.883,-323.98 3.851,-56.72 3.379,89.23 3.786,-139.045 3.851,-6.293 3.852,31.628 3.886,128.02 3.852,-58.53 3.883,18.5 3.851,-62.72 3.887,73.59 3.852,-357.23 3.816,111 3.348,-37.657 3.851,428.547 3.883,-303.129 3.852,238.909 7.738,-370.815 3.887,146.434 3.851,-105.403 3.883,464.014 3.785,-575.924 3.887,62.02 3.308,-4.047 3.852,7.226 3.887,-22.64 3.851,-0.457 3.887,289.782 3.852,47.32 3.882,-394.673 3.887,101.895 3.613,-141.813 3.516,159.985 3.852,-101.387 3.886,73.547 3.883,-1.399 3.852,31.278 3.851,7.476 3.887,-134.949 3.852,157.488 3.886,-87.761 3.817,-7.813 3.547,167.598 3.648,-276.895 3.887,119.735 3.851,40.414 3.887,-87.352 3.852,-20.859 3.882,183.64 3.887,121.495 3.852,-100.225 3.277,-153.094 3.887,-84.886 3.882,-30.622 3.852,83.329 3.887,-0.418 3.886,-64.411 7.735,257.18 3.887,40.332 3.886,-215.23 3.852,-93.742 3.308,153.945 3.887,-161.914 7.738,132.058 3.883,26.09 3.887,-34.652 3.852,59.887 3.886,120.089 3.883,-258.785 3.82,167.996 3.852,-217.707 3.344,154.457 3.885,30.473 3.85,-35.934 3.89,-46.695 3.88,-81.117 3.89,-9.738 3.85,29.468 3.88,-17.062 3.48,203.519 3.65,-179.57 7.74,25.356 3.88,-2.661 3.89,50.614 3.85,-102.703 7.77,98.207 3.86,-130.707 3.85,123.011 3.44,-112.59 3.75,350.942 3.89,11.26 3.85,-198.198 7.77,-158.082 3.85,8.243 3.89,50.914 3.85,105.871 3.31,-173.149 3.85,167.672 3.89,-76.816 3.85,15.539 3.85,-74.278 3.85,178.168 3.89,-175.91 3.85,-101.449 3.85,83.703 3.85,249.66 3.82,-236.547 3.34,-117.109 3.86,85.406 3.88,133.09 3.85,-78.473 3.89,6.594 3.85,-8.144 3.89,108.914 3.85,-95.707 3.85,1.265 3.82,-84.668 3.71,-3.062 3.48,127.484 3.89,2.75 3.85,-108.625 3.89,85.071 3.85,-111.594 3.88,162.984 3.86,355.613 3.85,-500.316 3.41,-17.523 3.75,79.632 3.85,-64.414 3.85,79.465 3.89,1.504 3.85,35.758 3.89,-133.289 3.85,36.828 3.85,87.59 3.88,-113.094 3.82,18.559 3.35,2.8 3.81,-48.781 3.89,199.68 3.88,-79.277 3.86,-29.844 3.85,-163.723 3.88,102.93 3.85,-40.129 3.85,21.109 3.69,36.258 3.88,356.447 3.45,-370.814 3.85,9.75 3.89,68.598 3.85,-8.524 3.88,87.867 3.85,-129.007 3.89,133.164 3.89,-182.977 3.68,133.289 3.45,-137.242 3.85,-4.184 3.88,-62.988 3.85,121.258 3.85,-42.301 3.89,55.156 3.85,76.914 3.89,4.664 3.85,-156.183 3.82,8.176 3.61,2.132 7.47,91.356 7.74,-126.289 3.88,169.98 3.85,35.004 3.85,-97.941 3.85,-24.246 3.35,-77.02 3.78,46.543 3.89,-1.004 3.89,141.336 3.85,-232.648 7.7,258.551 3.88,-206.145 3.86,29.91 3.85,160.453 3.82,-210.015 3.34,46.797 3.85,139.543 3.85,7.074 3.86,-67.09 3.88,-12.094 3.85,-19.558 3.89,-33.481 3.85,45.25 3.89,-28.316 3.85,-68.785 3.85,55.375 3.31,3.128 3.88,118.52 3.86,-172.254 3.88,99.543 3.85,-124.082 3.89,2.848 3.85,32.386 3.88,15.86 3.59,107.828 3.58,-122.508 3.85,152.516 3.89,-167.836 3.88,30.515 3.82,67.02 3.88,-89.484 3.89,17.574 3.85,56.351 3.89,-97.625 3.85,198.489 3.48,-117.129 3.72,145.437 3.85,39.629 3.88,-197.762 3.85,8.594 3.89,-44.808 3.85,63.359 3.89,42.394 3.85,26.332 3.27,-162.113 3.89,49.602 3.88,-3.739 3.86,-29.808 3.88,-1.86 3.85,130.52 3.89,78.512 3.88,-100.649 3.89,-27.547 3.85,-39.461 3.85,-77.574 7.2,136.684 3.85,-93.336 3.89,125.012 3.85,-116.567 3.89,225.606 3.85,-232.469 3.88,63.527 3.85,-76.582 3.82,30.676 3.75,49.07 3.45,28.996 3.85,-53.16 3.85,6.879 3.89,26.66 3.88,-38.015 3.85,-90.078 3.89,237.078 3.88,-170.465 3.45,-15.637 3.71,12.563 3.89,72.422 3.85,108.675 3.89,-102.058 3.85,-66.551 7.74,6.988 3.85,-24.687 3.88,-5.324 11.05,119.382 3.85,-168.804 3.89,15.582 3.85,142.14 3.89,-32.621 3.85,-53.301 3.85,-117.261 3.85,189.465 3.31,-91.516 3.85,-16.996 3.85,0.844 3.89,-41.27 3.85,144.297 3.89,-79.684 3.85,53.262 3.85,-48.781 3.88,44.328 3.89,-50.738 3.72,-71.387 3.41,76.699 3.85,53.695 7.74,-98.882 3.88,70.953 3.89,106.629 3.85,-90.946 7.74,-78.121 3.82,177.907 3.64,-68.575 3.55,-138.922 3.89,17.473 3.88,85.738 3.86,171.95 3.88,-253.786 3.85,-24.207 3.85,19.34 3.89,76.196 3.34,15.355 3.79,-2.758 3.88,-85.238 3.86,91.496 3.88,-27.551 3.85,44.278 3.85,-169.747 3.85,95.36 3.89,-47.117 3.85,78.308 7.17,-123.504 3.88,87.047 3.85,32.985 3.89,-10.262 3.85,0.305 3.85,-29.586 3.89,88.089 3.88,-12.792 3.85,-134.977 3.85,112.437 3.85,-52.031 3.35,19.563 3.85,36.691 3.89,57.113 3.88,-127.457 3.85,-15.429 3.89,51.976 3.85,13.899 3.89,-13.215 3.64,-21.731 3.52,-55.824 3.89,124.438 3.85,-14.723 3.88,-55.797 3.89,-29.941 7.74,78.57 3.85,-62.141 3.88,12.176 3.82,-8.359 3.51,-17.754 3.69,50.726 3.85,28.653 3.88,-29.031 3.86,103.011 3.85,-99.593 3.88,137.039 3.85,-116.997 3.89,-14.992 3.28,-71.55 3.85,33.195 3.88,51.207 3.86,-50.395 3.85,15.25 3.88,34.957 3.89,0.844 3.85,-92.078 3.89,-19.805 3.85,74.879 3.85,8.77 3.31,-61.203 3.88,105.468 3.86,-90.976 7.73,132.832 7.74,-133.137 3.85,31.563 3.89,117.972 3.85,-193.894 3.81,91.89 3.35,-100.082 3.85,144.016 3.89,-68.637 3.85,32.211 3.88,-82.387 3.86,53.508 3.88,-24.574 3.85,26.121 7.16,173.488 3.86,160.68 3.88,-325.012 3.89,-31.687 3.85,48.953 3.85,87.043 3.89,-117.043 3.85,-23.762 3.88,13.739 3.82,1629.003 3.45,-1603.14 7.6,85.062 3.88,211.727 3.86,-325.707 3.88,76.879 3.85,-61.367 3.89,98.949 3.85,-143.735 3.31,44.622 3.85,-48.086 3.89,117.683 3.88,-35.344 7.74,-104.238 3.85,73.789 3.85,40.938 3.89,-19.032 3.85,-95.171 3.82,41.191 3.34,-30.258 3.89,-23.988 3.88,202.176 3.89,-144.899 3.88,-5.879 3.89,119.93 7.74,-132.859 7.7,47.257 3.72,-53.292 3.51,402.167 3.85,-384.785 3.89,84.219 3.88,26.621 3.86,-99.293 3.88,20.184 3.89,1.722 3.85,25.602 3.41,-40.738 3.75,-24.043 3.88,95.457 7.74,-95.446 3.89,1.446 3.88,68.484 3.89,-43.039 3.88,14.359 3.89,-53.609 3.85,30.524 3.38,12.101 3.85,38.274 7.77,-45.493 3.85,22.032 3.89,-12.86 3.88,74.711 3.89,21.692 3.85,-99.762 3.68,98.285 3.89,-154.848 3.48,-17.91 3.89,55.992 3.85,-26.136 3.88,118.039 3.89,-94.239 3.85,-6.835 3.89,117.406 3.85,-76.434 3.71,-45.726 3.48,40.027 3.89,20.32 3.85,-66.863 3.88,-7.621 3.89,97.492 3.88,-24.156 3.89,-2.289 3.85,-75.008 3.89,-26.137 3.81,49.442 3.59,-32.11 3.61,27.289 3.89,63.352 7.73,-52.793 3.89,11.344 3.88,-18.274 3.89,51.492 3.88,-77.839 3.32,123.761 3.81,-70.883 3.89,99.352 3.89,-130.465 3.88,21.703 3.89,-75.793 3.88,237.325 3.89,-222.176 3.85,115.617 3.88,-99.793 3.82,-15.309 7.23,190.754 3.89,-98.867 3.88,-5.926 7.74,-54.91 3.88,4.524 3.89,-53.524 3.88,101.199 3.86,-58.582 3.85,39.145 3.35,-6.656 3.88,2.675 3.85,185.727 3.89,-237.953 3.88,23.523 3.85,-7.035 3.89,10.008 3.85,50.246 3.58,4.609 3.58,-16.386 3.89,18.535 3.85,54.543 3.88,-145.442 11.59,28.274 3.89,49.191 3.88,176.805 3.85,-187.258 3.49,-71.887 3.75,1.207 3.85,76.141 3.88,-82.691 3.89,32.968 3.88,200.243 3.89,-142.016 3.85,-45.543 3.89,-6.211 3.31,29.008 3.85,-19.719 3.89,31.352 3.85,-50.192 3.91,26.692 3.86,-17.395 3.88,123 3.89,-95.137 3.85,20.297 3.88,-80.867 3.86,13.524 3.31,-13.168 3.88,41.312 3.89,5.164 3.88,67.817 3.86,-105.114 3.88,174.7 3.85,-66.196 3.89,-88.582 3.88,124.488 3.86,-115.289 3.78,116.907 3.41,-123.852 3.89,13.367 3.88,93.114 3.85,-124.981 3.92,3.727 3.89,29.277 3.85,-24.027 3.88,-7.348 3.42,39.359 3.71,218.399 3.89,-230.102 3.88,24.989 3.89,-22.676 3.89,5.289 3.85,48.137 3.88,-5.332 3.89,-59.032 3.85,41.371 3.85,-20.25 3.41,159.946 3.79,-243.657 3.88,45.965 3.89,-9.023 3.88,37.367 3.85,-19.434 3.89,49.446 3.89,-65.297 3.88,69.574 3.28,-72.414 3.92,1.02 3.85,94.191 3.88,-80.856 3.89,38.747 3.89,-6.973 3.88,116.242 3.89,-75.074 3.85,-51.426 3.88,1.492 3.75,-32.316 3.45,103.484 3.88,-11.226 3.89,-38.934 3.85,-14.246 3.89,30.109 3.88,-66.257 3.89,265.621 3.85,-228.926 7.7,199.769 3.65,-213.836 3.55,-11.433 3.88,64.488 3.89,-45.023 3.85,-12.93 3.89,12.738 3.85,54.985 3.88,-81.141 3.86,-28.687 7.16,74.765 3.85,17.465 3.88,7.574 3.89,-50.207 3.85,-27.465 3.89,40.094 3.88,-45.363 3.85,392.18 3.89,-375.993 3.85,58.633 3.35,-46.472 3.85,46.957 3.88,-42.774 3.89,20.359 3.88,0.75 3.85,-78.847 3.89,19.867 3.89,25.754 3.85,11.016 3.85,3.242 3.85,95.222 3.35,-132.597 3.88,-3.824 3.89,64.75 3.85,-38.762 3.88,-10.696 3.89,36.098 3.88,-5.203 3.86,52.367 3.61,-64.234 3.55,19.082 3.85,-48.203 3.89,-9.176 3.88,96.594 3.85,0.019 3.89,-57.945 3.89,-11.16 3.88,-33.184 3.88,231.348 3.82,-55.352 3.52,-101.511 3.68,-32.832 3.85,95.769 3.88,-72.93 3.89,-15.226 3.88,-35.934 3.86,-0.023 3.88,7.109 3.89,217.328 3.31,-232.593 3.85,-7.051 7.74,72.09 3.88,-23.055 7.77,15.91 3.89,-44.16 3.85,54.562 3.89,21.305 3.85,-11.219 3.34,-63.039 3.89,22.145 3.88,-20.145 7.74,26.961 3.85,15.313 3.89,-52.528 3.88,-19.726 3.85,11.355 3.86,37.114 3.81,99.054 3.42,-130.086 3.88,8.446 3.86,-33.641 3.88,64.336 3.88,36.777 3.89,-0.031 3.88,60.656 7.37,-102.121 3.69,15.656 3.85,-32.679 3.88,68.777 3.89,-80.117 3.85,7.937 3.88,-50.789 3.89,148.953 7.74,-100.785 3.81,96.809 3.45,43.367 3.78,15.262 3.89,-162.488 3.89,-11.75 3.88,44.644 3.85,25.242 3.89,-68.668 3.88,31.09 3.89,1.16 3.31,42.657 3.85,-39.075 3.88,68.114 3.85,-30.321 3.89,24.461 7.74,-70.929 3.88,6.988 3.89,18.379 3.89,-25.649 3.78,-34.683 7.26,133.785 3.85,-25.445 7.77,-66.981 3.89,23.426 3.85,0.109 3.89,-60.832 3.88,15.192 3.79,-17.829 3.72,71.688 3.51,1.734 3.88,-57.98 3.89,57.66 3.88,-30.906 3.86,-20.375 3.88,-11.555 3.88,7.316 3.89,-2.464 3.42,101.539 3.75,-102.688 3.88,47.735 3.89,62.074 3.88,-8.953 3.85,-117.539 3.89,63.199 3.88,-40.903 3.89,36.047 3.85,133.059 3.85,-118.711 3.35,3.434 3.88,1.519 3.85,23.863 3.89,9.223 3.88,-86.871 3.89,-2.098 3.85,45.594 3.89,-18.797 3.85,30.766 3.85,-20.203 3.89,91.718 3.31,-111.722 3.88,277.39 3.85,-232.582 3.89,-35.582 3.85,-13.55 3.89,-25.106 3.88,15.246 3.89,37.184 3.68,13.363 3.51,-21.148 3.89,-44.039 3.85,5.011 3.88,158.821 3.89,-131.129 3.89,32.113 3.85,-86.801 3.88,152.219 3.89,-121.902 3.85,27.086 3.58,-6.973 3.65,37.551 3.85,-6.157 3.89,10.883 3.88,-34.636 3.89,24.894 3.85,182.164 3.89,-147.953 3.88,-55.625 3.35,22.215 3.85,-6.496 3.88,-34.942 3.89,49.75 3.88,-81.32 3.89,162.012 3.88,-150.313 3.86,12.086 3.88,35.488 3.88,16.426 3.86,39.934 3.34,-88.953 3.89,8.011 3.88,78.379 3.89,184.442 3.88,-219.645 3.89,-11.644 3.89,-22.868 3.88,56.977 3.89,-45.648 3.85,-12.055 3.88,63.113 3.35,-8.183 3.92,-33.598 7.77,-4.738 3.88,25.672 3.89,189.378 3.88,-25.546 11.08,-207.844 3.89,-4.012 3.89,1.617 3.88,24.297 3.89,182.867 3.91,-186.156 3.86,-21.902 7.77,234.683 3.85,-258.55 3.48,99.582 3.75,-99.668 3.88,94.129 3.89,155.679 3.89,-224.062 3.88,84.093 3.92,-9.156 3.85,-110.367 3.92,37.695 3.31,-24.273 3.89,122.019 3.88,-81.691 3.89,-8.371 3.88,-14.672 3.89,2.488 3.88,-5.332 3.89,24.766 3.82,14.762 3.55,-4.805 3.65,-20.008 2.97,61.098 3.81,-36.461 3.89,-53.305 3.89,52.055 3.88,-43.145 3.89,51.254 3.88,69.926 3.92,-126.258 3.85,97.446 3.86,-48.575 3.75,-21.59 3.48,-36.664 3.91,367.747 3.89,-296.094 3.88,-64.692 0,0"
             style="fill:none;stroke:#0000ff;stroke-width:15;stroke-linecap:square;stroke-linejoin:round;stroke-miterlimit:10;stroke-dasharray:none;stroke-opacity:1"
             id="path150"
             inkscape:connector-curvature="0" /><path
             d="m 689.191,3468 1.18,-1601.54 7.098,-519.28 7.836,54.76 7.84,-388.29 14.562,-253.486 7.805,193.348 7.804,-73.828 7.364,-228.555 7.703,277.41 7.469,-279.578 7.261,44.914 7.77,-32.32 7.738,131.41 7.738,-50.695 6.993,-104.352 7.738,251.43 7.769,-204.332 7.739,14.597 7.738,-68.222 7.059,131.203 7.636,-45.293 7.739,-78.121 7.769,-26.711 7.703,-5.391 7.363,62.61 7.403,-68.559 7.734,11.723 7.703,-35.434 7.703,43.77 6.961,-94.418 7.739,508.74 7.703,-498.42 7.734,87.215 7.703,-49.625 7.301,20.586 7.399,67.714 7.703,-84.117 7.703,135.016 7.769,-77.356 6.961,-55.648 7.736,63.547 7.74,-75.242 15.5,-66.43 7,102.563 7.74,-38.098 7.77,-5.031 7.77,-13.11 7.74,4.547 7.6,36.848 7.16,-66.489 7.74,40.227 7.8,-63.059 7.77,-23.191 7.03,33.086 7.74,18.48 7.77,58.954 7.77,-21.684 7.77,105.559 7.23,-131.383 7.57,17.519 7.77,-51.136 7.8,-5.883 7.77,35.82 7.4,-37.609 7.37,-0.11 7.77,-1.234 7.74,13.117 7.8,-21.957 6.96,84.051 7.77,-5.598 7.77,39.887 7.74,-133.313 7.73,36.895 7.5,25.051 7.23,-8.145 7.74,-20.785 7.74,43.867 7.7,5.309 7,-72.735 7.73,36.813 7.74,-14.957 7.71,29.254 7.7,-48.848 6.93,1.469 7.6,15.273 7.7,-10.007 7.73,30.964 7.78,4.442 7.36,-46.625 7.3,25.449 7.77,137.609 7.74,-134.007 7.73,-43.618 7,87.602 7.73,30.957 7.78,-110.395 7.73,-4.617 7.78,1.918 7.36,32.282 7.37,-3.149 7.77,28.555 7.73,-59.063 7.77,-2.863 7,-23.719 15.54,72.274 7.74,-16.43 7.8,25.492 7.03,-27.711 7.63,26.09 7.6,-4.297 7.81,-32.73 7.77,-11.699 7.63,13.632 7.13,104.024 7.78,-107.051 7.77,33.656 7.77,-51.242 6.99,87.879 7.77,-4.703 7.77,-93.656 7.77,6.625 7.77,22.839 7.23,-35.496 7.54,54.035 7.73,-24.882 7.81,-5.868 7.74,41.024 6.99,-65.336 7.8,68.789 7.68,-45.039 7.76,61.375 7.77,-66.461 7,-5.219 7.73,43.969 7.78,-33.082 7.8,90.387 7.74,-93.84 7.57,10.187 7.19,85.993 7.77,-105.914 7.74,6.925 7.77,-5.668 6.86,-13.371 7.77,30.84 7.74,-25.738 7.74,51.707 7.77,-40.93 7.16,-15.117 7.67,8.871 7.77,5.777 7.77,-19.793 7.77,-3.238 7.37,7.106 7.33,10.925 7.8,-30.523 7.77,23.129 7.81,12.789 7.03,-19.086 7.73,108.27 7.8,-102.891 7.81,26.68 7.77,7.418 7.44,-30.461 7.32,27.429 7.81,356.836 7.8,-275.136 7.81,-86.567 7.03,-45.168 7.73,4.289 7.81,47.332 7.8,87.137 7.81,-77.895 14.83,-51.496 7.8,21.032 7.77,-19.895 7.81,3.871 7.74,31.902 7.09,-19.117 7.77,-24.304 7.77,3.004 7.77,23.585 7,2.153 7.77,-10.211 7.77,358.703 7.77,-347.281 7.77,-10.496 7.3,-25.34 15.24,36.363 7.74,9.047 7.76,-12.566 6.97,2.179 7.77,220.418 7.73,-206.625 7.77,-15.902 7.77,162.258 7.03,-109.203 7.77,-62.676 7.74,24.195 7.77,34.066 7.77,-28.632 7.64,-3.692 7.16,26.668 7.77,-66.023 7.77,0.168 7.77,6.449 7.03,-0.941 7.77,24.089 7.81,-22.746 7.76,43.93 7.77,-47.828 7.23,38.797 7.58,-37.024 7.76,-18.254 7.77,20.391 7.78,49.895 7.4,7.39 7.39,-15.57 7.81,-44.789 7.77,22.906 7.8,-14.801 7.03,226.379 7.81,-258.558 7.77,49.48 7.8,-55.574 7.77,7.496 7.5,82.758 7.3,-46.883 7.8,-24.621 7.81,-2.035 7.8,-15.325 7.03,45.633 7.81,-37.554 7.8,8.492 7.77,44.883 7.77,-61.5 7.1,38.066 7.67,-14.57 7.77,10.933 7.8,-12.859 7.77,43.949 7.4,-51.762 7.4,-4.031 7.77,13.27 7.81,-3.629 7.77,-19.219 7.03,47.961 7.76,-52.406 7.78,17.133 7.77,74.57 7.77,-22.059 7.4,125.532 7.43,-192.559 7.77,13.172 7.77,17.152 7.77,50.856 7,-54.579 7.77,-10.82 7.77,-1.222 7.77,-7.422 7.77,27.918 7.03,-11.746 7.7,31.148 7.77,-53.051 7.77,17.285 7.77,-22.144 7.67,85.601 7.13,-67.132 7.77,38.761 7.77,-32.515 7.74,1.004 6.99,-26.004 7.77,172.371 7.78,-179.61 7.77,21.047 7.77,-7.89 7.26,18.582 7.54,-15.762 7.77,32.258 7.76,-0.762 7.81,-9.348 7,-19.3 7.8,-3.204 7.77,-5.793 7.77,198.668 7.8,-206.843 7,13.179 7.77,-1.496 7.77,1.211 7.8,-0.719 7.77,13.731 7.57,-10.563 7.23,296.864 7.81,-305.051 7.8,12.496 7.77,-6.742 7.03,21.152 7.81,-14.226 7.76,-2.43 7.81,7.617 7.8,12.453 7.17,-3.718 7.63,-5.313 7.84,319.734 7.77,-306.355 7.77,-39.371 7.44,54.078 7.36,-50.418 7.77,25.176 7.81,-12.449 7.8,-19.211 7.03,2.808 7.81,141.25 7.8,-131.258 7.77,-11.171 7.84,-2.657 7.43,57.528 7.37,-16.204 7.77,-21.574 7.77,-10.199 7.77,-1.633 7.03,14.164 7.8,-7.636 7.81,-4.817 7.77,2.844 7.8,-4.305 7.06,10.528 7.74,75.64 7.8,-85.828 7.77,17.586 7.81,-1.289 7.7,14.746 7.1,-9.344 7.77,43.848 7.8,-38.375 7.81,66.801 7.02,-56.157 7.81,-15.253 7.77,42.457 7.81,5.531 7.83,-58.66 7.33,-17.367 7.5,69.402 7.84,-22.887 7.81,-16.703 7.8,-23.828 7.03,2.719 7.84,117.113 7.84,-92.106 7.8,9.622 7.81,-22.793 6.99,9.128 7.8,-19.929 7.81,105.48 7.8,-84.82 7.81,-14.988 7.63,237.32 7.2,-232.375 7.8,-2.258 7.81,142.305 7.77,-102.75 7.06,-41.75 7.8,16.414 7.77,63.848 7.78,-75.993 7.8,33.598 7.16,-4.48 7.64,-26.594 7.77,-10.512 7.8,260.867 7.81,-252.429 7.36,-11.5 7.4,9.492 7.81,-4.43 7.77,-11.789 7.77,2.113 7.06,9.157 7.8,25.562 7.81,-27.809 7.8,-10.867 7.78,21.676 7.53,-13.937 7.3,-11.098 7.8,13.133 7.84,4.992 7.77,-0.484 7.03,-6.157 7.81,4.414 7.76,9.278 7.81,29.679 7.77,-44.312 7.13,4.422 7.67,-1.946 7.84,84.629 7.77,-72.988 7.77,4.559 7.43,-13.688 7.4,20.461 7.81,-24.519 7.8,12.953 7.8,136.765 7,-141.187 7.8,37.89 7.81,-14.562 7.8,-6.445 7.81,-29.25 7.36,18.773 7.47,-14.41 7.83,25.176 7.78,8.574 7.8,-27.02 7.03,20.532 7.84,-36.805 7.8,-3.953 7.8,37.871 7.84,-28.297 7.1,41.07 7.74,-15.964 7.84,-21.114 7.8,16.801 7.81,-16.328 7.7,51.246 7.19,-31.09 7.81,39.934 7.8,-68.184 7.84,80.969 7,-21.625 7.8,-47.578 7.84,21.523 7.77,187.641 7.8,-194.668 7.27,80.664 7.6,-100.781 7.77,21.679 7.81,-18.031 7.8,-7.137 7.03,809.326 7.8,-763.806 7.84,-14.922 0,0"
             style="fill:none;stroke:#bf00bf;stroke-width:15;stroke-linecap:square;stroke-linejoin:round;stroke-miterlimit:10;stroke-dasharray:none;stroke-opacity:1"
             id="path152"
             inkscape:connector-curvature="0" /></g></g><g
         id="g154"><g
           id="g156"
           clip-path="url(#clipPath158)"><path
             d="m 582,382.16 0,2661.12"
             style="fill:none;stroke:#000000;stroke-width:8;stroke-linecap:square;stroke-linejoin:miter;stroke-miterlimit:10;stroke-dasharray:none;stroke-opacity:1"
             id="path162"
             inkscape:connector-curvature="0" /><path
             d="m 4153.2,382.16 0,2661.12"
             style="fill:none;stroke:#000000;stroke-width:8;stroke-linecap:square;stroke-linejoin:miter;stroke-miterlimit:10;stroke-dasharray:none;stroke-opacity:1"
             id="path164"
             inkscape:connector-curvature="0" /><path
             d="m 582,382.16 3571.2,0"
             style="fill:none;stroke:#000000;stroke-width:8;stroke-linecap:square;stroke-linejoin:miter;stroke-miterlimit:10;stroke-dasharray:none;stroke-opacity:1"
             id="path166"
             inkscape:connector-curvature="0" /><path
             d="m 582,3043.28 3571.2,0"
             style="fill:none;stroke:#000000;stroke-width:8;stroke-linecap:square;stroke-linejoin:miter;stroke-miterlimit:10;stroke-dasharray:none;stroke-opacity:1"
             id="path168"
             inkscape:connector-curvature="0" /><g
             id="g170"
             transform="scale(10,10)"><text
               transform="matrix(1,0,0,-1,187.627,310.328)"
               style="font-variant:normal;font-weight:normal;font-size:12px;font-family:Arial;-inkscape-font-specification:Arial;writing-mode:lr-tb;fill:#000000;fill-opacity:1;fill-rule:nonzero;stroke:none"
               id="text172"><tspan
                 x="0 6.6855502 14.027353 20.62501 27.978519 31.312492 34.646465 40.945293 48.298805 53.00388 56.337852 63.679653 71.285118 75.099579 78.433548 85.775352 92.027351"
                 y="0"
                 sodipodi:role="line"
                 id="tspan174">Localization loss</tspan></text>
</g><path
             d="m 2748.2,2669.84 1335,0 c 13.34,0 20,6.67 20,20 l 0,283.44 c 0,13.33 -6.66,20 -20,20 l -1335,0 c -13.33,0 -20,-6.67 -20,-20 l 0,-283.44 c 0,-13.33 6.67,-20 20,-20"
             style="fill:#ffffff;fill-opacity:1;fill-rule:nonzero;stroke:none"
             id="path176"
             inkscape:connector-curvature="0" /><path
             d="m 2748.2,2669.84 1335,0 c 13.34,0 20,6.67 20,20 l 0,283.44 c 0,13.33 -6.66,20 -20,20 l -1335,0 c -13.33,0 -20,-6.67 -20,-20 l 0,-283.44 c 0,-13.33 6.67,-20 20,-20 z"
             style="fill:none;stroke:#cccccc;stroke-width:10;stroke-linecap:butt;stroke-linejoin:miter;stroke-miterlimit:10;stroke-dasharray:none;stroke-opacity:1"
             id="path178"
             inkscape:connector-curvature="0" /><path
             d="m 2768.2,2912.34 200,0"
             style="fill:none;stroke:#0000ff;stroke-width:15;stroke-linecap:square;stroke-linejoin:round;stroke-miterlimit:10;stroke-dasharray:none;stroke-opacity:1"
             id="path180"
             inkscape:connector-curvature="0" /><g
             id="g182"
             transform="scale(10,10)"><text
               transform="matrix(1,0,0,-1,304.82,287.734)"
               style="font-variant:normal;font-weight:normal;font-size:10px;font-family:Arial;-inkscape-font-specification:Arial;writing-mode:lr-tb;fill:#000000;fill-opacity:1;fill-rule:nonzero;stroke:none"
               id="text184"><tspan
                 x="0 6.0929589 10.204277 16.332006 19.110518 25.448418 28.226538 34.564438 40.912094 44.090996 47.699188 50.87809 59.505821 65.633942 71.97184 78.309738 84.437469"
                 y="0"
                 sodipodi:role="line"
                 id="tspan186">Training - Manual</tspan></text>
</g><path
             d="m 2768.2,2765.63 200,0"
             style="fill:none;stroke:#bf00bf;stroke-width:15;stroke-linecap:square;stroke-linejoin:round;stroke-miterlimit:10;stroke-dasharray:none;stroke-opacity:1"
             id="path188"
             inkscape:connector-curvature="0" /><g
             id="g190"
             transform="scale(10,10)"><text
               transform="matrix(1,0,0,-1,304.82,273.063)"
               style="font-variant:normal;font-weight:normal;font-size:10px;font-family:Arial;-inkscape-font-specification:Arial;writing-mode:lr-tb;fill:#000000;fill-opacity:1;fill-rule:nonzero;stroke:none"
               id="text192"><tspan
                 x="0 6.0929589 10.204277 16.332006 19.110518 25.448418 28.226538 34.564438 40.912094 44.090996 47.699188 50.87809 57.005821 63.343719 67.264816 73.38279 83.124207 89.251938 93.173035 95.951157"
                 y="0"
                 sodipodi:role="line"
                 id="tspan194">Training - automatic</tspan></text>
</g></g></g></g><text
       xml:space="preserve"
       style="font-style:normal;font-weight:normal;font-size:8px;line-height:125%;font-family:sans-serif;letter-spacing:0px;word-spacing:0px;fill:#000000;fill-opacity:1;stroke:none;stroke-width:1px;stroke-linecap:butt;stroke-linejoin:miter;stroke-opacity:1"
       x="226.8959"
       y="-16.022266"
       id="text3522"
       sodipodi:linespacing="125%"
       transform="scale(1,-1)"><tspan
         sodipodi:role="line"
         id="tspan3524"
         x="226.8959"
         y="-16.022266">Batches</tspan></text>
</g></svg>